<svg xmlns="http://www.w3.org/2000/svg" xmlns:xlink="http://www.w3.org/1999/xlink" aria-hidden="true" role="img" class="iconify iconify--logos" width="31.88" height="32" preserveAspectRatio="xMidYMid meet" viewBox="0 0 256 257"><defs><linearGradient id="IconifyId1813088fe1fbc01fb466" x1="-.828%" x2="57.636%" y1="7.652%" y2="78.411%"><stop offset="0%" stop-color="#41D1FF"></stop><stop offset="100%" stop-color="#BD34FE"></stop></linearGradient><linearGradient id="IconifyId1813088fe1fbc01fb467" x1="43.376%" x2="50.316%" y1="2.242%" y2="89.03%"><stop offset="0%" stop-color="#FFEA83"></stop><stop offset="8.333%" stop-color="#FFDD35"></stop><stop offset="100%" stop-color="#FFA800"></stop></linearGradient></defs><path fill="url(#IconifyId1813088fe1fbc01fb466)" d="M255.153 37.938L134.897 252.976c-2.483 4.44-8.862 4.466-11.382.048L.875 37.958c-2.746-4.814 1.371-10.646 6.827-9.67l120.385 21.517a6.537 6.537 0 0 0 2.322-.004l117.867-21.483c5.438-.991 9.574 4.796 6.877 9.62Z"></path><path fill="url(#IconifyId1813088fe1fbc01fb467)" d="M185.432.063L96.44 17.501a3.268 3.268 0 0 0-2.634 3.014l-9.596 108.384a3.268 3.268 0 0 0 3.997 3.514l24.232-4.258c2.59-.455 4.923-1.77 6.823-3.799l.015-.015l9.258-10.173c.823-.904 1.946-1.409 3.122-1.409c2.4 0 4.347 1.932 4.347 4.314c0 2.382-1.947 4.314-4.347 4.314c-.892 0-1.719-.27-2.4-.729l-9.015 9.911c-.882.97-1.853 1.748-2.88 2.332l-24.177 4.248a3.268 3.268 0 0 0-3.997 3.514l9.596 108.384a3.268 3.268 0 0 0 3.997 3.514l88.992-17.438a3.268 3.268 0 0 0 2.634-3.014L188.43 3.577a3.268 3.268 0 0 0-3.997-3.514Z"></path></svg>
